<svg viewBox="0 0 500 500" xmlns="http://www.w3.org/2000/svg" xmlns:bx="https://boxy-svg.com">
  <defs></defs>
  <path style="stroke: rgb(0, 0, 0); stroke-linecap: round; stroke-linejoin: round; stroke-width: 0px; fill: rgb(165, 117, 182);" d="M 288.021 17.989 C 224.151 20.27 129.866 28.178 79.226 46.274 C 28.586 64.371 21.591 92.656 17.181 156.982 C 12.771 221.309 10.946 321.676 24.784 384.482 C 38.623 447.288 68.124 472.532 145.073 479.071 C 222.021 485.61 346.417 473.445 412.264 452.154 C 478.112 430.864 485.411 400.45 488.605 343.119 C 491.798 285.787 490.886 201.54 484.959 150.459 C 479.032 99.379 468.091 81.466 456.23 65.651 C 444.368 49.835 431.586 36.116 408.467 27.585 C 385.348 19.053 351.892 15.707 288.021 17.989" bx:d="M 318.436 12.362 U 35.581 36.086 U 14.596 120.941 U 9.121 422.044 U 97.626 497.776 U 470.812 461.279 U 492.711 370.035 U 489.973 117.292 U 457.15 63.553 U 418.804 22.398 Z 1@0a5ce2bb"></path>
  <path style="stroke: rgb(0, 0, 0); stroke-linecap: round; stroke-linejoin: round; stroke-width: 0px; fill: rgb(151, 109, 166);" d="M 343.88899999999995 296.5466666666667 C 326.52299999999997 321.456 305.584 329.052 263.99516666666665 343.2471666666667 C 222.40633333333332 357.44233333333335 160.16766666666666 378.2366666666667 115.6515 389.19216666666665 C 71.13533333333334 400.1476666666667 44.34166666666667 401.2643333333333 44.29116666666666 417.7218333333333 C 44.24066666666667 434.1793333333333 70.93333333333334 465.97766666666666 146.47733333333335 475.79400000000004 C 222.02133333333336 485.61033333333336 346.4166666666667 473.4446666666667 412.26416666666665 452.1544999999999 C 478.1116666666667 430.8643333333334 485.4113333333333 400.4496666666667 488.6048333333333 343.11850000000004 C 491.79833333333335 285.7873333333334 490.88566666666674 201.53966666666668 485.271 166.22083333333333 C 479.65633333333335 130.90200000000002 469.3396666666667 144.51200000000003 452.4843333333333 156.162 C 435.6290000000001 167.812 412.23499999999996 177.50200000000004 393.6415 203.45833333333334 C 375.048 229.41466666666668 361.25499999999994 271.63733333333334 343.88899999999995 296.5466666666667" bx:d="M 347.462 313.86 U 284.645 336.648 U 97.929 399.031 U 17.548 402.381 U 97.626 497.776 U 470.812 461.279 U 492.711 370.035 U 489.973 117.292 U 459.023 158.122 U 388.841 187.192 Z 1@08c40474"></path>
  <path style="stroke-width: 38px; stroke-linecap: round; stroke-linejoin: round; fill-opacity: 0; fill: rgb(216, 216, 216); stroke: rgb(32, 20, 37);" d="M 96.438 129.532 L 102.247 409.102 L 397.065 409.828"></path>
  <path style="fill: rgb(216, 216, 216); stroke-width: 33px; fill-opacity: 0; stroke-linejoin: round; stroke-linecap: round; stroke: rgb(32, 20, 37);" d="M 194.381 84.049 L 356.058 108.993 L 337.828 198.055 L 218.344 199.507 L 336.286 199.775 L 350.695 281.295 L 215.44 312.062"></path>
</svg>