<svg viewBox="0 0 500 500" xmlns="http://www.w3.org/2000/svg" xmlns:bx="https://boxy-svg.com">
  <defs></defs>
  <path style="stroke: rgb(0, 0, 0); stroke-linecap: round; stroke-linejoin: round; stroke-width: 0px; fill: rgb(165, 117, 182);" d="M 290.624 14.106 C 226.753 16.387 132.468 24.295 81.828 42.392 C 31.188 60.488 24.193 88.773 19.783 153.099 C 15.373 217.426 13.548 317.793 27.386 380.599 C 41.225 443.405 70.727 468.649 147.675 475.188 C 224.624 481.727 349.019 469.562 414.866 448.272 C 480.714 426.981 488.013 396.567 491.207 339.236 C 494.4 281.904 493.488 197.657 487.405 145.952 C 481.322 94.248 470.069 75.086 458.208 59.271 C 446.346 43.455 433.876 30.985 410.913 23.077 C 387.95 15.17 354.494 11.824 290.624 14.106" bx:d="M 321.038 8.479 U 38.183 32.203 U 17.198 117.058 U 11.723 418.161 U 100.228 493.893 U 473.414 457.396 U 495.313 366.152 U 492.575 113.409 U 458.816 55.925 U 421.406 18.515 Z 1@1393c24e"></path>
  <path style="stroke-width: 38px; stroke-linecap: round; stroke-linejoin: round; fill-opacity: 0; fill: rgb(216, 216, 216); stroke: rgba(0, 0, 0, 0.96);" d="M 99.04 125.649 L 104.849 405.219 L 399.667 405.945"></path>
  <path style="fill: rgb(216, 216, 216); stroke-width: 33px; fill-opacity: 0; stroke-linejoin: round; stroke-linecap: round; stroke: rgba(0, 0, 0, 0.92);" d="M 199.976 71.188 L 370.622 87.163 L 359.73 185.194 L 223.939 186.646 L 359.004 184.468 L 361.182 270.88 L 221.035 299.201"></path>
</svg>
